<?xml version="1.0" encoding="utf-8"?>
<!-- Generator: Adobe Illustrator 24.2.0, SVG Export Plug-In . SVG Version: 6.00 Build 0)  -->
<svg version="1.1" id="Layer_1" xmlns="http://www.w3.org/2000/svg" xmlns:xlink="http://www.w3.org/1999/xlink" x="0px" y="0px"
	 viewBox="0 0 245.4 77.4" style="enable-background:new 0 0 245.4 77.4;" xml:space="preserve">
<style type="text/css">
	.st0{fill:#123063;}
	.st1{fill:#F9C623;}
	.st2{fill:none;}
	.st3{enable-background:new    ;}
	.st4{fill:#494949;}
</style>
<path class="st0" d="M79.4,44.6c6.2,6.2,15.8,6.9,23-0.3c2.6-2.6,4.4-5.9,5.2-9.5c0.4-1.2-0.2-2.5-1.4-2.9c-0.1,0-0.2-0.1-0.4-0.1
	l-1.4-0.3c-1.5-0.4-2.4,0.2-3,1.8c-0.5,2.3-1.6,4.4-3.3,6.1c-3.3,3.6-8.8,3.8-12.4,0.6l0,0l13.2-13.2c1-1,1-2.7,0-3.7
	c-6-6-13.8-6.9-19.9-0.7C72.5,28.8,72.7,38,79.4,44.6L79.4,44.6z M82.6,36.5c-2.4-3.4-2.3-7.3,0.4-10c2.5-2.5,6.1-2.5,9.2,0.4
	L82.6,36.5z"/>
<path class="st0" d="M111.9,45.9c-0.2,1.2,0.7,2.3,1.9,2.5c0.2,0,0.4,0,0.6,0h2.7c1.2,0.2,2.3-0.7,2.5-1.9c0-0.2,0-0.4,0-0.6V12.4
	h11.5c1.2,0.2,2.3-0.6,2.5-1.8c0-0.2,0-0.4,0-0.6V8.3c0.2-1.2-0.7-2.4-1.9-2.5c-0.2,0-0.4,0-0.5,0h-30.7c-1.2-0.2-2.4,0.7-2.5,1.9
	c0,0.2,0,0.4,0,0.6V10c-0.2,1.2,0.7,2.3,1.9,2.5c0.2,0,0.4,0,0.6,0H112v33.4 M131.9,37.5c0,8.4,4.1,11.7,10.6,11.7
	c4.5,0,8.6-2.5,10.6-6.4h0.1c-0.1,0.5-0.1,0.9-0.1,1.4V46c-0.2,1.2,0.7,2.3,1.9,2.5c0.2,0,0.4,0,0.6,0h2.4c1.2,0.2,2.4-0.6,2.6-1.9
	c0-0.2,0-0.4,0-0.7V20.3c0.1-1.3-0.7-2.4-2-2.5c-0.2,0-0.3,0-0.5,0h-2.6c-1.2-0.2-2.4,0.7-2.5,1.9c0,0.2,0,0.4,0,0.6v11.5
	c0,5.5-3.1,10.3-8.6,10.3c-3.8,0-4.8-2.5-4.8-6.3V20.3c0.2-1.2-0.7-2.4-1.9-2.5c-0.2,0-0.4,0-0.6,0h-2.6c-1.3-0.1-2.4,0.8-2.5,2
	c0,0.2,0,0.3,0,0.5L131.9,37.5 M169.8,37.5c0,8.3,6.5,11.2,12,11.2c2.1,0,3.1-0.7,3.1-2.5v-1.9c0-1.7-0.7-2.3-2.5-2.5
	c-2.1-0.2-4.9-1.1-4.9-5.7V24.3h4.5c1.2,0.1,2.3-0.7,2.5-2c0-0.2,0-0.4,0-0.6v-1c0.1-1.3-0.7-2.4-2-2.5c-0.2,0-0.3,0-0.5,0h-4.4
	v-6.3c0.1-1.3-0.8-2.4-2-2.5c-0.2,0-0.3,0-0.5,0h-2.4c-1.3-0.1-2.4,0.8-2.5,2c0,0.2,0,0.3,0,0.5v6.3h-1.7c-1.2-0.2-2.4,0.7-2.5,2
	c0,0.2,0,0.4,0,0.6v1c-0.2,1.2,0.7,2.3,1.9,2.5c0.2,0,0.4,0,0.6,0h1.6L169.8,37.5 M187.8,33.1c0,9.4,7.5,16,16.8,16
	s16.9-6.6,16.9-16s-7.6-16-16.9-16S187.7,23.7,187.8,33.1L187.8,33.1z M195.6,33.1c-0.1-5.7,4-9.6,9-9.6c5.1,0,9.2,4.1,9.1,9.2
	c0,0.1,0,0.3,0,0.4c0,5.7-4.1,9.6-9.1,9.6s-9.1-3.9-9.1-9.6H195.6z M227,46c-0.2,1.2,0.7,2.3,1.9,2.5c0.2,0,0.4,0,0.6,0h2.6
	c1.2,0.2,2.3-0.7,2.5-1.9c0-0.2,0-0.4,0-0.6v-9.9c0-5.6,2.7-11.1,8.3-11.1c1.3,0.1,2.4-0.8,2.5-2.1c0-0.1,0-0.3,0-0.4v-2.4
	c0-1.7-0.6-2.5-2.3-2.5c-4.3,0-7.7,4.1-8.9,7.8h-0.1c0.1-0.7,0.2-1.4,0.2-2.1v-2.9c0.1-1.3-0.7-2.4-2-2.5c-0.2,0-0.3,0-0.5,0h-2.4
	c-1.2-0.1-2.3,0.8-2.5,2c0,0.2,0,0.4,0,0.5L227,46"/>
<path class="st0" d="M68,8.3l-1.2-0.6C57,2.9,46.3,0.3,35.4,0c-0.6,0-1,0-1.2,0S33.6,0,33,0C22.1,0.3,11.4,2.9,1.7,7.7L0.5,8.3
	C0.2,8.4,0.1,8.7,0.1,8.9c0,29.5-3.1,54.2,33.2,67l0.7,0.3c0.1,0,0.2,0,0.2,0c0.1,0,0.2,0,0.2,0l0.7-0.3
	c36.3-12.8,33.2-37.5,33.2-67C68.3,8.7,68.2,8.4,68,8.3"/>
<path class="st1" d="M49.8,22.1c-2.3-0.2-7.1,4.9-9.3,7.2c-0.7,0.7-1.5,0.3-1.3-0.7c1-6.2,9.2-11.4,11.1-11.3s8.7,7.1,8.4,13.4
	c-0.1,1-1,1.2-1.4,0.4C55.7,28.3,52.2,22.3,49.8,22.1"/>
<path class="st1" d="M50.3,28.2c-1.5,11.1-7.9,23-15.7,31.1c-4.1,4.3-8.8,7.9-13.9,10.9c-1.7-1-3.3-2.1-4.8-3.3
	c5.5-3.5,10.6-7.7,15.1-12.4c7.3-7.7,13.1-16.8,16.9-26.8C48.4,26.1,50.5,26.3,50.3,28.2"/>
<rect x="76.6" y="54.5" class="st2" width="87.1" height="23"/>
<g class="st3">
	<path class="st4" d="M89.3,70.2V72H78.8V57.6H89v1.8h-8.1v4.4h7.2v1.8h-7.2v4.7H89.3z"/>
	<path class="st4" d="M108.1,57.6V72h-1.7l-8.7-10.8V72h-2.1V57.6h1.7l8.7,10.8V57.6H108.1z"/>
	<path class="st4" d="M118.3,59.4h-5v-1.8h12v1.8h-5V72h-2V59.4z"/>
	<path class="st4" d="M141,70.2V72h-10.5V57.6h10.2v1.8h-8.1v4.4h7.2v1.8h-7.2v4.7H141z"/>
	<path class="st4" d="M157,72l-3.1-4.4c-0.3,0-0.6,0-0.9,0h-3.6V72h-2.1V57.6h5.6c3.8,0,6,1.9,6,5c0,2.2-1.2,3.8-3.2,4.6l3.4,4.9
		H157z M157,62.6c0-2.1-1.4-3.2-4-3.2h-3.5v6.5h3.5C155.6,65.9,157,64.7,157,62.6z"/>
</g>
<rect x="163.7" y="54.5" class="st2" width="17.8" height="23"/>
<g class="st3">
	<path class="st4" d="M177.6,62.6c0,3.1-2.3,5-6,5H168V72h-2.1V57.6h5.6C175.3,57.6,177.6,59.5,177.6,62.6z M175.5,62.6
		c0-2.1-1.4-3.2-4-3.2H168v6.5h3.5C174.1,65.8,175.5,64.7,175.5,62.6z"/>
</g>
<rect x="181.5" y="54.5" class="st2" width="60.5" height="23"/>
<g class="st3">
	<path class="st4" d="M193.4,72l-3.1-4.4c-0.3,0-0.6,0-0.9,0h-3.6V72h-2.1V57.6h5.6c3.8,0,6,1.9,6,5c0,2.2-1.2,3.8-3.2,4.6l3.4,4.9
		H193.4z M193.3,62.6c0-2.1-1.4-3.2-4-3.2h-3.5v6.5h3.5C191.9,65.9,193.3,64.7,193.3,62.6z"/>
	<path class="st4" d="M201.7,57.6h2.1V72h-2.1V57.6z"/>
	<path class="st4" d="M209.8,70.4l0.8-1.6c1.1,1,2.9,1.7,4.8,1.7c2.5,0,3.6-1,3.6-2.2c0-3.5-8.8-1.3-8.8-6.7c0-2.2,1.7-4.1,5.5-4.1
		c1.7,0,3.4,0.5,4.6,1.3l-0.7,1.7c-1.3-0.8-2.7-1.2-4-1.2c-2.5,0-3.5,1-3.5,2.3c0,3.5,8.8,1.3,8.8,6.6c0,2.2-1.8,4.1-5.6,4.1
		C213.1,72.2,210.9,71.4,209.8,70.4z"/>
	<path class="st4" d="M237.4,70.2V72h-10.5V57.6h10.2v1.8H229v4.4h7.2v1.8H229v4.7H237.4z"/>
</g>
</svg>
